<?xml version="1.0" encoding="UTF-8"?>
<svg width="33px" height="30px" viewBox="0 0 33 30" version="1.1" xmlns="http://www.w3.org/2000/svg" xmlns:xlink="http://www.w3.org/1999/xlink">
    <!-- Generator: Sketch 54.1 (76490) - https://sketchapp.com -->
    <title>nav_requests_selected_icon</title>
    <desc>Created with Sketch.</desc>
    <g id="Web" stroke="none" stroke-width="1" fill="none" fill-rule="evenodd">
        <g id="Desktop-Copy-11" transform="translate(-29.000000, -388.000000)" fill="#0076FF" fill-rule="nonzero" stroke="#0076FF" stroke-width="0.3">
            <g id="nav_requests_selected_icon" transform="translate(30.000000, 389.000000)">
                <path d="M7.10414648,7.64537021 L21.3125,7.64537021 C21.6694844,7.64537021 21.9583535,7.36114043 21.9583535,7.00988936 C21.9583535,6.6586383 21.6694844,6.37440851 21.3125,6.37440851 L7.10414648,6.37440851 C6.74716211,6.37440851 6.45829297,6.6586383 6.45829297,7.00988936 C6.45835352,7.3612 6.74722266,7.64537021 7.10414648,7.64537021 Z" id="Path"></path>
                <path d="M14.8541465,14 L7.10414648,14 C6.74716211,14 6.45829297,14.2842298 6.45829297,14.6354809 C6.45829297,14.9867319 6.74716211,15.2709617 7.10414648,15.2709617 L14.8541465,15.2709617 C15.2111309,15.2709617 15.5,14.9867319 15.5,14.6354809 C15.5,14.2842298 15.2111309,14 14.8541465,14 Z" id="Path"></path>
                <path d="M28.5276895,2.56170213 C28.4902715,2.56170213 28.4540039,2.57093617 28.416707,2.57266383 L28.416707,2.56170213 C28.416707,1.15985532 27.2574766,0.0198382979 25.8333535,0.0198382979 L2.58335352,0.0198382979 C1.15923047,0.0198382979 0,1.15985532 0,2.56170213 L0,27.3446809 C0,27.6016255 0.157664063,27.8336681 0.398580078,27.9317277 C0.478078125,27.9646128 0.562541016,27.9801617 0.645792969,27.9801617 C0.813568359,27.9801617 0.978800781,27.9156426 1.1024375,27.7939915 L7.37158203,21.6255319 L25.8333535,21.6255319 C27.2574766,21.6255319 28.416707,20.4855745 28.416707,19.0836681 L28.416707,8.54363404 L30.2759805,6.71451915 C30.2759805,6.71451915 30.2759805,6.71451915 30.2759805,6.7139234 C30.7363789,6.26091915 31,5.63413617 31,4.99430638 C31,3.65268936 29.8912656,2.56170213 28.5276895,2.56170213 Z M27.125,19.0836681 C27.125,19.7842638 26.5459902,20.3545702 25.8333535,20.3545702 L7.10414648,20.3545702 C6.93261719,20.3545702 6.7685957,20.4215915 6.64750195,20.5407404 L1.29164648,25.8106383 L1.29164648,2.56170213 C1.29164648,1.86110638 1.87065625,1.2908 2.58329297,1.2908 L25.833293,1.2908 C26.5460508,1.2908 27.125,1.86110638 27.125,2.56170213 L27.125,2.9957617 C27.0023926,3.07868936 26.8851133,3.16989787 26.7793984,3.27409362 L19.7523281,10.187234 L7.10414648,10.187234 C6.74716211,10.187234 6.45829297,10.4714638 6.45829297,10.8227149 C6.45829297,11.173966 6.74716211,11.4581957 7.10414648,11.4581957 L18.7161289,11.4581957 L18.0959473,14.5107915 C18.0530801,14.7193021 18.1199238,14.9346638 18.2725625,15.0847915 C18.3949277,15.2051915 18.5601602,15.2709617 18.729207,15.2709617 C18.7708633,15.2709617 18.8137305,15.2666128 18.8553262,15.2585702 L22.0832617,14.6230894 C22.2093809,14.5982468 22.3241777,14.5380766 22.4137266,14.4493106 L27.125,9.81441702 L27.125,19.0836681 Z M21.6392109,13.4148 L19.5528867,13.8256255 L19.970418,11.7703064 L25.8330508,6.00182979 L27.5033574,7.64531064 L21.6392109,13.4148 Z M29.3626914,5.81595745 L28.4166465,6.74680851 L26.7462188,5.10320851 L27.6925664,4.17205957 C27.9120488,3.95669787 28.2160547,3.83260426 28.5276289,3.83260426 C29.1785078,3.83260426 29.708293,4.35388085 29.708293,4.99430638 C29.7083535,5.29962553 29.5821738,5.59940426 29.3626914,5.81595745 Z" id="Shape"></path>
            </g>
        </g>
    </g>
</svg>