<?xml version="1.0" encoding="UTF-8"?>
<svg width="33px" height="30px" viewBox="0 0 33 30" version="1.1" xmlns="http://www.w3.org/2000/svg" xmlns:xlink="http://www.w3.org/1999/xlink">
    <!-- Generator: Sketch 54.1 (76490) - https://sketchapp.com -->
    <title>nav_news_selected_icon</title>
    <desc>Created with Sketch.</desc>
    <g id="Web" stroke="none" stroke-width="1" fill="none" fill-rule="evenodd">
        <g id="Desktop-Copy-10" transform="translate(-29.000000, -308.000000)" fill="#0076FF" fill-rule="nonzero" stroke="#0076FF" stroke-width="0.3">
            <g id="nav_news_selected_icon" transform="translate(30.000000, 309.000000)">
                <path d="M11.9932127,22.2564103 L4.90950226,22.2564103 C4.52214253,22.2564103 4.2081448,22.5778359 4.2081448,22.974359 C4.2081448,23.3708821 4.52214253,23.6923077 4.90950226,23.6923077 L11.9932127,23.6923077 C12.3805724,23.6923077 12.6945701,23.3708821 12.6945701,22.974359 C12.6945701,22.5778359 12.3805724,22.2564103 11.9932127,22.2564103 Z" id="Path"></path>
                <path d="M22.5837104,22.2564103 L15.5,22.2564103 C15.1126403,22.2564103 14.7986425,22.5778359 14.7986425,22.974359 C14.7986425,23.3708821 15.1126403,23.6923077 15.5,23.6923077 L22.5837104,23.6923077 C22.971,23.6923077 23.2850679,23.3708821 23.2850679,22.974359 C23.2850679,22.5778359 22.971,22.2564103 22.5837104,22.2564103 Z" id="Path"></path>
                <path d="M22.5837104,4.30769231 L4.90950226,4.30769231 C4.52214253,4.30769231 4.2081448,4.62911795 4.2081448,5.02564103 C4.2081448,5.4221641 4.52214253,5.74358974 4.90950226,5.74358974 L22.5837104,5.74358974 C22.971,5.74358974 23.2850679,5.4221641 23.2850679,5.02564103 C23.2850679,4.62911795 22.971,4.30769231 22.5837104,4.30769231 Z" id="Path"></path>
                <path d="M22.5837104,7.8974359 L15.5,7.8974359 C15.1126403,7.8974359 14.7986425,8.21886154 14.7986425,8.61538462 C14.7986425,9.01190769 15.1126403,9.33333333 15.5,9.33333333 L22.5837104,9.33333333 C22.971,9.33333333 23.2850679,9.01190769 23.2850679,8.61538462 C23.2850679,8.21886154 22.971,7.8974359 22.5837104,7.8974359 Z" id="Path"></path>
                <path d="M22.5837104,11.4871795 L15.5,11.4871795 C15.1126403,11.4871795 14.7986425,11.8086051 14.7986425,12.2051282 C14.7986425,12.6016513 15.1126403,12.9230769 15.5,12.9230769 L22.5837104,12.9230769 C22.971,12.9230769 23.2850679,12.6016513 23.2850679,12.2051282 C23.2850679,11.8086051 22.971,11.4871795 22.5837104,11.4871795 Z" id="Path"></path>
                <path d="M22.5837104,15.0769231 L15.5,15.0769231 C15.1126403,15.0769231 14.7986425,15.3983487 14.7986425,15.7948718 C14.7986425,16.1913949 15.1126403,16.5128205 15.5,16.5128205 L22.5837104,16.5128205 C22.971,16.5128205 23.2850679,16.1913949 23.2850679,15.7948718 C23.2850679,15.3983487 22.971,15.0769231 22.5837104,15.0769231 Z" id="Path"></path>
                <path d="M22.5837104,18.6666667 L15.5,18.6666667 C15.1126403,18.6666667 14.7986425,18.9880923 14.7986425,19.3846154 C14.7986425,19.7811385 15.1126403,20.1025641 15.5,20.1025641 L22.5837104,20.1025641 C22.971,20.1025641 23.2850679,19.7811385 23.2850679,19.3846154 C23.2850679,18.9880923 22.971,18.6666667 22.5837104,18.6666667 Z" id="Path"></path>
                <path d="M11.9932127,18.6666667 L4.90950226,18.6666667 C4.52214253,18.6666667 4.2081448,18.9880923 4.2081448,19.3846154 C4.2081448,19.7811385 4.52214253,20.1025641 4.90950226,20.1025641 L11.9932127,20.1025641 C12.3805724,20.1025641 12.6945701,19.7811385 12.6945701,19.3846154 C12.6945701,18.9880923 12.3805724,18.6666667 11.9932127,18.6666667 Z" id="Path"></path>
                <path d="M11.9932127,7.8974359 L4.90950226,7.8974359 C4.52214253,7.8974359 4.2081448,8.21886154 4.2081448,8.61538462 L4.2081448,15.8666667 C4.2081448,16.2631897 4.52214253,16.5846154 4.90950226,16.5846154 L11.9932127,16.5846154 C12.3805724,16.5846154 12.6945701,16.2631897 12.6945701,15.8666667 L12.6945701,8.61538462 C12.6945701,8.21886154 12.3805724,7.8974359 11.9932127,7.8974359 Z M11.2918552,15.1487179 L5.61085973,15.1487179 L5.61085973,9.33333333 L11.2918552,9.33333333 L11.2918552,15.1487179 Z" id="Shape"></path>
                <path d="M29.5972851,3.58974359 L27.4932127,3.58974359 L27.4932127,1.43589744 C27.4932127,0.64414359 26.8639548,0 26.0904977,0 L1.40271493,0 C0.629257919,0 0,0.64414359 0,1.43589744 L0,24.4102564 C0,26.389641 1.5731448,28 3.50678733,28 L27.4932127,28 C29.4268552,28 31,26.389641 31,24.4102564 L31,5.02564103 C31,4.23388718 30.3707421,3.58974359 29.5972851,3.58974359 Z M29.5972851,24.4102564 C29.5972851,25.5978872 28.6533982,26.5641026 27.4932127,26.5641026 L3.50678733,26.5641026 C2.34660181,26.5641026 1.40271493,25.5978872 1.40271493,24.4102564 L1.40271493,1.43589744 L26.0904977,1.43589744 L26.0904977,23.3333333 C26.0904977,24.3230256 26.8770701,25.1282051 27.8438914,25.1282051 C28.231181,25.1282051 28.5452489,24.8067795 28.5452489,24.4102564 C28.5452489,24.0137333 28.231181,23.6923077 27.8438914,23.6923077 C27.6505271,23.6923077 27.4932127,23.5312718 27.4932127,23.3333333 L27.4932127,5.02564103 L29.5972851,5.02564103 L29.5972851,24.4102564 Z" id="Shape"></path>
            </g>
        </g>
    </g>
</svg>