<?xml version="1.0" encoding="UTF-8"?>
<svg width="52px" height="64px" viewBox="0 0 52 64" version="1.1" xmlns="http://www.w3.org/2000/svg" xmlns:xlink="http://www.w3.org/1999/xlink">
    <!-- Generator: Sketch 54.1 (76490) - https://sketchapp.com -->
    <title>trash_can_icon</title>
    <desc>Created with Sketch.</desc>
    <g id="Web" stroke="none" stroke-width="1" fill="none" fill-rule="evenodd">
        <g id="Desktop-Copy-23" transform="translate(-816.000000, -281.000000)" fill="#FFFFFF" fill-rule="nonzero">
            <g id="trash_can_icon" transform="translate(816.000000, 281.000000)">
                <path d="M34.8756287,23.2284382 C34.0502874,23.2284382 33.3813758,23.8962705 33.3813758,24.7202797 L33.3813758,52.9160839 C33.3813758,53.7395105 34.0502874,54.4079254 34.8756287,54.4079254 C35.7009698,54.4079254 36.3698815,53.7395105 36.3698815,52.9160839 L36.3698815,24.7202797 C36.3698815,23.8962705 35.7009698,23.2284382 34.8756287,23.2284382 Z" id="Path"></path>
                <path d="M17.2434448,23.2284382 C16.4181034,23.2284382 15.7491919,23.8962705 15.7491919,24.7202797 L15.7491919,52.9160839 C15.7491919,53.7395105 16.4181034,54.4079254 17.2434448,54.4079254 C18.0687859,54.4079254 18.7376976,53.7395105 18.7376976,52.9160839 L18.7376976,24.7202797 C18.7376976,23.8962705 18.0687859,23.2284382 17.2434448,23.2284382 Z" id="Path"></path>
                <path d="M4.39287005,19.1136364 L4.39287005,55.8694639 C4.39287005,58.041958 5.19077762,60.0821678 6.58463538,61.5460373 C7.97207248,63.013986 9.90292752,63.8473193 11.923671,63.8508159 L40.1954023,63.8508159 C42.2167296,63.8473193 44.1475844,63.013986 45.5344379,61.5460373 C46.9282957,60.0821678 47.7262034,58.041958 47.7262034,55.8694639 L47.7262034,19.1136364 C50.4969917,18.3793707 52.2924299,15.7068764 51.9217851,12.8682983 C51.5505568,10.030303 49.1288164,7.90734262 46.2617187,7.90675991 L38.6112609,7.90675991 L38.6112609,6.04195804 C38.6200161,4.47377619 37.9989673,2.96794868 36.887033,1.86013986 C35.7750988,0.752913753 34.2645026,0.136363636 32.6937859,0.149184149 L19.4252874,0.149184149 C17.8545707,0.136363636 16.3439745,0.752913753 15.2320402,1.86013986 C14.120106,2.96794868 13.4990571,4.47377619 13.5078126,6.04195804 L13.5078126,7.90675991 L5.85735456,7.90675991 C2.99025686,7.90734262 0.568516598,10.030303 0.197288,12.8682983 C-0.173356644,15.7068764 1.62208157,18.3793707 4.39287005,19.1136364 Z M40.1954023,60.8671329 L11.923671,60.8671329 C9.36884882,60.8671329 7.38137579,58.6759907 7.38137579,55.8694639 L7.38137579,19.2447552 L44.7376976,19.2447552 L44.7376976,55.8694639 C44.7376976,58.6759907 42.7502245,60.8671329 40.1954023,60.8671329 Z M16.4963183,6.04195804 C16.4863954,5.26515155 16.7922503,4.51748252 17.3444235,3.96911426 C17.8960129,3.420746 18.6466414,3.11946383 19.4252874,3.13286713 L32.6937859,3.13286713 C33.4724317,3.11946383 34.2230603,3.420746 34.7746497,3.96911426 C35.326823,4.5168998 35.6326778,5.26515155 35.6227551,6.04195804 L35.6227551,7.90675991 L16.4963183,7.90675991 L16.4963183,6.04195804 Z M5.85735456,10.8904429 L46.2617187,10.8904429 C47.7472162,10.8904429 48.9513739,12.0926574 48.9513739,13.5757576 C48.9513739,15.0588578 47.7472162,16.2610723 46.2617187,16.2610723 L5.85735456,16.2610723 C4.37185697,16.2610723 3.16769939,15.0588578 3.16769939,13.5757576 C3.16769939,12.0926574 4.37185697,10.8904429 5.85735456,10.8904429 Z" id="Shape"></path>
                <path d="M26.0595367,23.2284382 C25.2341954,23.2284382 24.5652838,23.8962705 24.5652838,24.7202797 L24.5652838,52.9160839 C24.5652838,53.7395105 25.2341954,54.4079254 26.0595367,54.4079254 C26.8848779,54.4079254 27.5537896,53.7395105 27.5537896,52.9160839 L27.5537896,24.7202797 C27.5537896,23.8962705 26.8848779,23.2284382 26.0595367,23.2284382 Z" id="Path"></path>
            </g>
        </g>
    </g>
</svg>