<?xml version="1.0" encoding="UTF-8"?>
<svg width="54px" height="74px" viewBox="0 0 54 74" version="1.1" xmlns="http://www.w3.org/2000/svg" xmlns:xlink="http://www.w3.org/1999/xlink">
    <!-- Generator: Sketch 54.1 (76490) - https://sketchapp.com -->
    <title>location_icon</title>
    <desc>Created with Sketch.</desc>
    <g id="Web" stroke="none" stroke-width="1" fill="none" fill-rule="evenodd">
        <g id="Desktop-Copy-16" transform="translate(-1416.000000, -462.000000)" fill="#0076FF" fill-rule="nonzero">
            <g id="location_icon" transform="translate(1416.000000, 462.000000)">
                <path d="M27.2626027,0 C12.5908767,0 0.653178082,12.1858367 0.653178082,27.1640408 C0.653178082,31.0709388 1.43654795,34.8011429 2.98035616,38.2519592 C9.63345205,53.1131224 22.3892877,68.8033878 26.1411781,73.2577347 C26.422274,73.5907347 26.8320822,73.7825306 27.2633425,73.7825306 C27.6946027,73.7825306 28.104411,73.5907347 28.3855068,73.2577347 C32.1359178,68.8041429 44.8917534,53.1146327 51.5470685,38.2519592 C53.0916164,34.8011429 53.8742466,31.0709388 53.8742466,27.1640408 C53.8727671,12.1858367 41.9350685,0 27.2626027,0 Z M27.2626027,41.2731224 C19.6412055,41.2731224 13.4400822,34.943102 13.4400822,27.1632857 C13.4400822,19.3827143 19.6412055,13.0526939 27.2626027,13.0526939 C34.884,13.0526939 41.0851233,19.3827143 41.0851233,27.1632857 C41.085863,34.943102 34.8847397,41.2731224 27.2626027,41.2731224 Z" id="Shape"></path>
            </g>
        </g>
    </g>
</svg>