<?xml version="1.0" encoding="UTF-8"?>
<svg width="20px" height="20px" viewBox="0 0 20 20" version="1.1" xmlns="http://www.w3.org/2000/svg" xmlns:xlink="http://www.w3.org/1999/xlink">
    <!-- Generator: Sketch 54.1 (76490) - https://sketchapp.com -->
    <title>log_in_lozinka_icon</title>
    <desc>Created with Sketch.</desc>
    <defs>
        <linearGradient x1="0%" y1="1.72254642e-14%" x2="100%" y2="100%" id="linearGradient-1">
            <stop stop-color="#123C9E" offset="0%"></stop>
            <stop stop-color="#0C81DA" offset="100%"></stop>
        </linearGradient>
    </defs>
    <g id="Web" stroke="none" stroke-width="1" fill="none" fill-rule="evenodd">
        <g id="Desktop-Copy" transform="translate(-1178.000000, -797.000000)">
            <g id="log_in_lozinka_icon" transform="translate(1178.000000, 797.000000)">
                <g id="Group-3">
                    <circle id="Oval" fill="url(#linearGradient-1)" cx="10" cy="10" r="10"></circle>
                    <g id="eye-open" transform="translate(3.000000, 6.000000)" fill="#FFFFFF" fill-rule="nonzero">
                        <path d="M13.8438078,3.96103327 C13.1145368,2.7683067 12.1339846,1.80995512 10.902288,1.08600591 C9.67050932,0.362029335 8.36980138,0 7,0 C5.63019862,0 4.32943596,0.361892513 3.09765727,1.08600591 C1.86585123,1.80995512 0.885353755,2.7683067 0.156192219,3.96103327 C0.0520731941,4.1433067 0,4.32300788 0,4.50013682 C0,4.67726576 0.0520731941,4.85696694 0.156192219,5.03918564 C0.885353755,6.23196694 1.86585123,7.19040061 3.09765727,7.91418564 C4.32943596,8.63824431 5.63019862,9 7,9 C8.36982874,9 9.67053668,8.63944834 10.902288,7.91812609 C12.1339846,7.19677649 13.114701,6.23708406 13.8438078,5.03918564 C13.9479542,4.85696694 14,4.67734785 14,4.50013682 C14,4.32300788 13.9479542,4.1433067 13.8438078,3.96103327 Z M5.32410784,1.82423927 C5.79022176,1.35811624 6.34879775,1.12497264 6.99991791,1.12497264 C7.10403693,1.12497264 7.19264072,1.1615313 7.26559244,1.23440236 C7.33843472,1.30730079 7.3750474,1.39587894 7.3750474,1.50002736 C7.3750474,1.60425788 7.33843472,1.6927813 7.26575663,1.76557027 C7.19291436,1.83855079 7.10425584,1.875 7.00010945,1.875 C6.55221979,1.875 6.16929163,2.0339317 5.85162599,2.35157618 C5.5338509,2.66941222 5.37505913,3.05218367 5.37505913,3.50008209 C5.37505913,3.60436734 5.33850117,3.69283603 5.26563154,3.76578919 C5.19265245,3.83879707 5.10415812,3.87521891 5.00001173,3.87521891 C4.89578325,3.87521891 4.80726155,3.83871497 4.73430983,3.76578919 C4.66133074,3.69283603 4.62488224,3.60425788 4.62488224,3.50008209 C4.62488224,2.84908603 4.85802129,2.29038967 5.32410784,1.82423927 Z M10.3945812,7.0510891 C9.35027149,7.68375109 8.21878091,8.00027364 7,8.00027364 C5.78124646,8.00027364 4.64975588,7.68394264 3.60550089,7.0510891 C2.56124591,6.41823555 1.69274822,5.56794549 1.00006255,4.50013682 C1.79172286,3.2709063 2.78390465,2.35154882 3.97660791,1.74228327 C3.65891491,2.28387697 3.50001368,2.86988288 3.50001368,3.50005473 C3.50001368,4.46371497 3.84252559,5.28773533 4.52735787,5.97274518 C5.21219015,6.65775504 6.03649541,7.00010946 7,7.00010946 C7.96358668,7.00010946 8.78764566,6.65756349 9.47264213,5.97274518 C10.1576386,5.28792688 10.5000137,4.46371497 10.5000137,3.50005473 C10.5000137,2.86988288 10.3410851,2.28379488 10.0233647,1.74228327 C11.2160133,2.35154882 12.2082498,3.2709884 12.9998827,4.50013682 C12.3073065,5.56794549 11.4388909,6.41823555 10.3945812,7.0510891 Z" id="Shape"></path>
                    </g>
                </g>
            </g>
        </g>
    </g>
</svg>