<?xml version="1.0" encoding="UTF-8"?>
<svg width="262px" height="337px" viewBox="0 0 262 337" version="1.1" xmlns="http://www.w3.org/2000/svg" xmlns:xlink="http://www.w3.org/1999/xlink">
    <!-- Generator: Sketch 54.1 (76490) - https://sketchapp.com -->
    <title>moj_grad_logo</title>
    <desc>Created with Sketch.</desc>
    <defs>
        <linearGradient x1="0%" y1="1.72254642e-14%" x2="100%" y2="100%" id="linearGradient-1">
            <stop stop-color="#123C9E" offset="0%"></stop>
            <stop stop-color="#0C81DA" offset="100%"></stop>
        </linearGradient>
        <linearGradient x1="49.4260204%" y1="1.72254642e-14%" x2="50.5739796%" y2="100%" id="linearGradient-2">
            <stop stop-color="#123C9E" offset="0%"></stop>
            <stop stop-color="#0C81DA" offset="100%"></stop>
        </linearGradient>
        <linearGradient x1="0%" y1="22.68431%" x2="100%" y2="77.31569%" id="linearGradient-3">
            <stop stop-color="#123C9E" offset="0%"></stop>
            <stop stop-color="#0C81DA" offset="100%"></stop>
        </linearGradient>
    </defs>
    <g id="Web" stroke="none" stroke-width="1" fill="none" fill-rule="evenodd">
        <g id="Desktop" transform="translate(-829.000000, -95.000000)" fill-rule="nonzero">
            <g id="moj_grad_logo" transform="translate(829.000000, 95.000000)">
                <path d="M34.5536,294.6192 L38.8032,313.3072 L43.2576,295.3872 C43.6330685,293.885326 44.0511977,292.852803 44.512,292.2896 C44.9728023,291.726397 45.6298624,291.4448 46.4832,291.4448 C47.2341371,291.4448 48.3775923,291.530132 49.9136,291.7008 C51.4496077,291.871468 52.6101294,291.9568 53.3952,291.9568 C54.2144041,291.9568 56.2453171,291.820268 59.488,291.5472 C60.4096046,291.478933 61.0922644,291.4448 61.536,291.4448 C62.6624056,291.4448 63.5669299,291.777597 64.2496,292.4432 C64.9322701,293.108803 65.2736,294.021861 65.2736,295.1824 C65.2736,296.138138 65.0090693,296.940263 64.48,297.5888 C63.9509307,298.237337 63.2938706,298.5616 62.5088,298.5616 C62.2015985,298.5616 61.7749361,298.501867 61.2288,298.3824 C60.6826639,298.262933 60.2901345,298.2032 60.0512,298.2032 C59.1295954,298.2032 58.6688,299.346655 58.6688,301.6336 L58.6688,315.816 C58.6688,318.137078 59.1125289,319.2976 60,319.2976 C60.273068,319.2976 60.6826639,319.237867 61.2288,319.1184 C61.7749361,318.998933 62.184532,318.9392 62.4576,318.9392 C63.2426706,318.9392 63.9082639,319.263463 64.4544,319.912 C65.0005361,320.560537 65.2736,321.362662 65.2736,322.3184 C65.2736,323.478939 64.9322701,324.391997 64.2496,325.0576 C63.5669299,325.723203 62.6624056,326.056 61.536,326.056 C60.8874634,326.056 59.7952077,325.953601 58.2592,325.7488 C57.2351949,325.612266 56.2112051,325.544 55.1872,325.544 C54.5386634,325.544 53.5829396,325.629332 52.32,325.8 C51.0570604,325.970668 50.1013366,326.056 49.4528,326.056 C48.4287949,326.056 47.6010698,325.71467 46.9696,325.032 C46.3381302,324.34933 46.0224,323.444806 46.0224,322.3184 C46.0224,320.202123 46.7221263,319.144 48.1216,319.144 C48.326401,319.144 48.4799995,319.161066 48.5824,319.1952 L48.9408,319.1952 C49.077334,319.229334 49.1626665,319.2464 49.1968,319.2464 C49.7429361,319.2464 50.0671995,318.870937 50.1696,318.12 C50.2037335,317.778665 50.2208,317.198404 50.2208,316.3792 L50.2208,297.0768 L43.104,322.2672 C42.4895969,324.451744 41.4826737,325.544 40.0832,325.544 L36.8064,325.544 C35.4410598,325.544 34.5024026,324.57121 33.9904,322.6256 L27.1808,297.0768 L27.1808,316.3792 C27.1808,317.983475 27.3343985,318.887999 27.6416,319.0928 C27.7440005,319.195201 27.931732,319.2464 28.2048,319.2464 C28.273067,319.2464 28.375466,319.229334 28.512,319.1952 L28.8192,319.1952 C28.9216005,319.161066 29.075199,319.144 29.28,319.144 C30.6453402,319.144 31.328,320.185056 31.328,322.2672 C31.328,323.427739 31.0208031,324.34933 30.4064,325.032 C29.7919969,325.71467 28.9728051,326.056 27.9488,326.056 C27.4709309,326.056 26.8565371,326.004801 26.1056,325.9024 L24.3136,325.6464 C23.5967964,325.578133 22.7776046,325.544 21.856,325.544 C20.6954609,325.544 19.7226706,325.595199 18.9376,325.6976 L15.7632,326.1072 C14.7050614,326.1072 13.8346701,325.748804 13.152,325.032 C12.4693299,324.315196 12.128,323.410672 12.128,322.3184 C12.128,321.328528 12.3925307,320.51787 12.9216,319.8864 C13.4506693,319.25493 14.1247959,318.9392 14.944,318.9392 C15.217068,318.9392 15.6181307,318.998933 16.1472,319.1184 C16.6762693,319.237867 17.077332,319.2976 17.3504,319.2976 C18.0330701,319.2976 18.4597325,318.853871 18.6304,317.9664 C18.698667,317.625065 18.7328,316.908272 18.7328,315.816 L18.7328,301.6336 C18.7328,300.541328 18.698667,299.841602 18.6304,299.5344 C18.4597325,298.646929 18.0330701,298.2032 17.3504,298.2032 C17.077332,298.2032 16.6762693,298.262933 16.1472,298.3824 C15.6181307,298.501867 15.2000015,298.5616 14.8928,298.5616 C14.1077294,298.5616 13.4506693,298.237337 12.9216,297.5888 C12.3925307,296.940263 12.128,296.138138 12.128,295.1824 C12.128,292.690654 13.3909207,291.4448 15.9168,291.4448 C16.7360041,291.4448 18.1013238,291.530132 20.0128,291.7008 C21.9242762,291.871468 23.3578619,291.9568 24.3136,291.9568 C25.8496077,291.9568 27.4538583,291.854401 29.1264,291.6496 C30.2528056,291.513066 31.1402634,291.4448 31.7888,291.4448 C32.6421376,291.4448 33.239465,291.649598 33.5808,292.0592 C33.922135,292.468802 34.2463985,293.322127 34.5536,294.6192 Z M80.8384,326.6704 C76.6058455,326.6704 73.3376115,325.475745 71.0336,323.0864 C68.7295885,320.697055 67.5776,317.334955 67.5776,313 C67.5776,308.699178 68.7210552,305.345612 71.008,302.9392 C73.2949448,300.532788 76.503446,299.3296 80.6336,299.3296 C84.695487,299.3296 87.895455,300.524255 90.2336,302.9136 C92.571745,305.302945 93.7408,308.579713 93.7408,312.744 C93.7408,317.113089 92.605878,320.526388 90.336,322.984 C88.066122,325.441612 84.900287,326.6704 80.8384,326.6704 Z M80.6336,305.6272 C79.1317258,305.6272 77.9456044,306.28426 77.0752,307.5984 C76.2047956,308.91254 75.7696,310.713055 75.7696,313 C75.7696,315.321078 76.2047956,317.130127 77.0752,318.4272 C77.9456044,319.724273 79.1658588,320.3728 80.736,320.3728 C83.9104159,320.3728 85.4976,317.915225 85.4976,313 C85.4976,308.084775 83.8762829,305.6272 80.6336,305.6272 Z M96.9664,329.7424 C96.9664,330.220269 96.8469345,330.663998 96.608,331.0736 C96.881068,331.141867 97.188265,331.176 97.5296,331.176 C98.6901391,331.176 99.5007977,330.664005 99.9616,329.64 C100.422402,328.615995 100.6528,326.78988 100.6528,324.1616 L100.6528,308.904 C100.6528,306.95839 100.345603,305.9856 99.7312,305.9856 C99.526399,305.9856 99.1936023,306.045333 98.7328,306.1648 C98.2719977,306.284267 97.9562675,306.344 97.7856,306.344 C96.3178593,306.344 95.584,305.388276 95.584,303.4768 C95.584,301.189855 96.5909233,300.0464 98.6048,300.0464 C99.1168026,300.0464 99.8591951,300.114666 100.832,300.2512 C101.804805,300.387734 102.547197,300.456 103.0592,300.456 C103.571203,300.456 104.339195,300.387734 105.3632,300.2512 C106.387205,300.114666 106.950399,300.0464 107.0528,300.0464 C108.008538,300.0464 108.4864,300.711993 108.4864,302.0432 L108.4864,325.4928 C108.4864,327.404276 108.315735,328.897595 107.9744,329.9728 C107.633065,331.048005 106.984538,332.097595 106.0288,333.1216 C103.946656,335.374411 101.079485,336.5008 97.4272,336.5008 C94.9013207,336.5008 92.8362747,335.980272 91.232,334.9392 C89.6277253,333.898128 88.8256,332.541342 88.8256,330.8688 C88.8256,329.674127 89.2522624,328.667204 90.1056,327.848 C90.9589376,327.028796 92.0170604,326.6192 93.28,326.6192 C94.3381386,326.6192 95.2170632,326.917864 95.9168,327.5152 C96.6165368,328.112536 96.9664,328.854929 96.9664,329.7424 Z M103.9808,298.1008 C102.683727,298.1008 101.574405,297.648538 100.6528,296.744 C99.7311954,295.839462 99.2704,294.738673 99.2704,293.4416 C99.2704,292.144527 99.7311954,291.043738 100.6528,290.1392 C101.574405,289.234662 102.683727,288.7824 103.9808,288.7824 C105.277873,288.7824 106.378662,289.234662 107.2832,290.1392 C108.187738,291.043738 108.64,292.144527 108.64,293.4416 C108.64,294.70454 108.187738,295.796795 107.2832,296.7184 C106.378662,297.640005 105.277873,298.1008 103.9808,298.1008 Z M141.0496,290.728 C144.633618,290.728 147.620255,291.939721 150.0096,294.3632 C150.316802,292.349323 151.340791,291.3424 153.0816,291.3424 C155.197877,291.3424 156.256,292.36639 156.256,294.4144 C156.256,294.755735 156.187734,295.438395 156.0512,296.4624 C155.846399,297.998408 155.744,299.039464 155.744,299.5856 C155.744,300.200003 155.778133,300.660798 155.8464,300.968 C155.914667,302.060272 155.9488,302.674666 155.9488,302.8112 C155.9488,303.698671 155.556271,304.441064 154.7712,305.0384 C153.986129,305.635736 152.979206,305.9344 151.7504,305.9344 C149.770657,305.9344 148.576002,304.96161 148.1664,303.016 C147.756798,301.07039 147.168004,299.73067 146.4,298.9968 C145.631996,298.26293 144.411742,297.896 142.7392,297.896 C140.520522,297.896 138.805339,298.928523 137.5936,300.9936 C136.381861,303.058677 135.776,305.985581 135.776,309.7744 C135.776,312.982949 136.364794,315.483191 137.5424,317.2752 C138.720006,319.067209 140.349856,319.9632 142.432,319.9632 C143.763207,319.9632 144.863996,319.579204 145.7344,318.8112 C146.604804,318.043196 147.04,317.078939 147.04,315.9184 C147.04,314.484793 146.442673,313.768 145.248,313.768 L144.9408,313.768 C144.804266,313.802134 144.684801,313.8192 144.5824,313.8192 C144.036264,313.887467 143.729067,313.9216 143.6608,313.9216 C142.97813,313.9216 142.397869,313.622936 141.92,313.0256 C141.442131,312.428264 141.2032,311.685871 141.2032,310.7984 C141.2032,309.774395 141.54453,308.955203 142.2272,308.3408 C142.90987,307.726397 143.797328,307.4192 144.8896,307.4192 C145.606404,307.4192 146.690126,307.513066 148.1408,307.7008 C149.591474,307.888534 150.692263,307.9824 151.4432,307.9824 C152.569606,307.9824 153.81546,307.897068 155.1808,307.7264 C156.273072,307.589866 157.023998,307.5216 157.4336,307.5216 C158.525872,307.5216 159.404797,307.854397 160.0704,308.52 C160.736003,309.185603 161.0688,310.081594 161.0688,311.208 C161.0688,312.197872 160.829869,313.025597 160.352,313.6912 C159.874131,314.356803 159.276804,314.6896 158.56,314.6896 L157.3312,314.5872 C156.409595,314.5872 155.9488,315.355192 155.9488,316.8912 C155.9488,317.539737 155.965866,318.222396 156,318.9392 L156.1024,321.1408 C156.136534,321.891737 156.1536,322.60853 156.1536,323.2912 C156.1536,325.578145 154.890679,326.7216 152.3648,326.7216 C149.975455,326.7216 148.7808,325.885342 148.7808,324.2128 L148.7808,323.9056 C146.425588,325.782943 143.746148,326.7216 140.7424,326.7216 C138.11412,326.7216 135.639478,326.030407 133.3184,324.648 C130.997322,323.265593 129.307739,321.465078 128.2496,319.2464 C126.88426,316.413319 126.2016,313.119485 126.2016,309.3648 C126.2016,303.630371 127.532787,299.090683 130.1952,295.7456 C132.857613,292.400517 136.47571,290.728 141.0496,290.728 Z M172.9984,301.6336 L172.9984,305.9856 C173.476269,304.244791 174.039463,302.964804 174.688,302.1456 C176.189874,300.268257 178.289053,299.3296 180.9856,299.3296 C182.862943,299.3296 184.441594,299.935461 185.7216,301.1472 C187.001606,302.358939 187.6416,303.852258 187.6416,305.6272 C187.6416,307.026674 187.232004,308.178662 186.4128,309.0832 C185.593596,309.987738 184.55254,310.44 183.2896,310.44 C182.333862,310.44 181.523203,310.132803 180.8576,309.5184 C180.191997,308.903997 179.8592,308.153071 179.8592,307.2656 C179.8592,306.787731 180.081064,306.122138 180.5248,305.2688 L180.2176,305.2688 C177.930655,305.2688 176.394671,306.480521 175.6096,308.904 C174.995197,310.84961 174.688,313.085321 174.688,315.6112 L174.688,317.5568 C174.688,318.785606 174.790399,319.570665 174.9952,319.912 C175.131734,320.116801 175.370665,320.2192 175.712,320.2192 C176.019202,320.2192 176.445864,320.150934 176.992,320.0144 C177.538136,319.877866 177.947732,319.8096 178.2208,319.8096 C178.971737,319.8096 179.611731,320.074131 180.1408,320.6032 C180.669869,321.132269 180.9344,321.772263 180.9344,322.5232 C180.9344,323.513072 180.601603,324.340797 179.936,325.0064 C179.270397,325.672003 178.459738,326.0048 177.504,326.0048 C176.991997,326.0048 176.036274,325.919468 174.6368,325.7488 C173.783462,325.646399 172.708273,325.5952 171.4112,325.5952 C170.114127,325.5952 168.970672,325.646399 167.9808,325.7488 C166.342392,325.919468 165.335469,326.0048 164.96,326.0048 C162.843723,326.0048 161.7856,324.861345 161.7856,322.5744 C161.7856,320.662924 162.604792,319.7072 164.2432,319.7072 C164.516268,319.7072 164.823465,319.766933 165.1648,319.8864 C165.506135,320.005867 165.762132,320.0656 165.9328,320.0656 C166.51307,320.0656 166.8032,319.109876 166.8032,317.1984 L166.8032,308.904 C166.8032,306.95839 166.51307,305.9856 165.9328,305.9856 C165.796266,305.9856 165.531735,306.045333 165.1392,306.1648 C164.746665,306.284267 164.448001,306.344 164.2432,306.344 C162.604792,306.344 161.7856,305.405343 161.7856,303.528 C161.7856,302.503995 162.058664,301.667737 162.6048,301.0192 C163.150936,300.370663 163.850662,300.0464 164.704,300.0464 C165.045335,300.0464 165.523197,300.114666 166.1376,300.2512 C166.752003,300.387734 167.332264,300.456 167.8784,300.456 C168.288002,300.456 168.885329,300.387734 169.6704,300.2512 C170.455471,300.114666 171.035731,300.0464 171.4112,300.0464 C172.469339,300.0464 172.9984,300.575461 172.9984,301.6336 Z M211.552,326.6704 C208.753053,326.6704 206.875738,325.544011 205.92,323.2912 C203.530655,325.544011 200.697616,326.6704 197.4208,326.6704 C194.724253,326.6704 192.573875,325.96214 190.9696,324.5456 C189.365325,323.12906 188.5632,321.243212 188.5632,318.888 C188.5632,315.303982 190.116251,312.982939 193.2224,311.9248 C194.553607,311.481064 196.089591,311.105602 197.8304,310.7984 C200.253879,310.388798 201.900796,309.919469 202.7712,309.3904 C203.641604,308.861331 204.0768,308.050672 204.0768,306.9584 C204.0768,306.173329 203.744003,305.516269 203.0784,304.9872 C202.412797,304.458131 201.585072,304.1936 200.5952,304.1936 C199.468794,304.1936 198.9056,304.551996 198.9056,305.2688 C198.9056,305.507735 198.922666,305.746665 198.9568,305.9856 L198.9568,306.1904 C198.9568,307.146138 198.555737,307.948263 197.7536,308.5968 C196.951463,309.245337 195.953073,309.5696 194.7584,309.5696 C193.39306,309.5696 192.266671,309.160004 191.3792,308.3408 C190.491729,307.521596 190.048,306.497606 190.048,305.2688 C190.048,303.425591 191.02079,301.974939 192.9664,300.9168 C194.91201,299.858661 197.59145,299.3296 201.0048,299.3296 C204.691218,299.3296 207.438924,299.892794 209.248,301.0192 C211.19361,302.248006 212.1664,304.534917 212.1664,307.88 L212.1664,318.4784 C212.1664,319.570672 212.439464,320.1168 212.9856,320.1168 C213.258668,320.1168 213.514665,320.099734 213.7536,320.0656 C213.856001,320.031466 213.975466,320.0144 214.112,320.0144 C214.897071,320.0144 215.562664,320.287464 216.1088,320.8336 C216.654936,321.379736 216.928,322.045329 216.928,322.8304 C216.928,323.956806 216.424538,324.878396 215.4176,325.5952 C214.410662,326.312004 213.122141,326.6704 211.552,326.6704 Z M204.128,315.7136 L204.128,314.5872 C203.889065,314.723734 202.387214,315.150396 199.6224,315.8672 C197.745057,316.345069 196.8064,317.078928 196.8064,318.0688 C196.8064,319.638941 197.727991,320.424 199.5712,320.424 C202.609082,320.424 204.128,318.853882 204.128,315.7136 Z M229.216,299.688 C231.810146,299.688 234.199456,300.694923 236.384,302.7088 L236.384,299.0224 C236.384,297.793594 235.957338,297.1792 235.104,297.1792 C234.899199,297.1792 234.489603,297.213333 233.8752,297.2816 C233.431464,297.418134 232.987736,297.4864 232.544,297.4864 C231.895463,297.4864 231.349336,297.213336 230.9056,296.6672 C230.461864,296.121064 230.24,295.438404 230.24,294.6192 C230.24,292.434656 231.400522,291.3424 233.7216,291.3424 C234.472537,291.3424 235.018665,291.359466 235.36,291.3936 C236.72534,291.530134 237.646931,291.5984 238.1248,291.5984 C238.568536,291.5984 239.217062,291.564267 240.0704,291.496 C240.923738,291.427733 241.555198,291.3936 241.9648,291.3936 C242.818138,291.3936 243.406932,291.589865 243.7312,291.9824 C244.055468,292.374935 244.2176,293.100261 244.2176,294.1584 L244.2176,317.4544 C244.2176,319.195209 244.541863,320.0656 245.1904,320.0656 C245.395201,320.0656 245.651198,320.014401 245.9584,319.912 C246.163201,319.843733 246.436265,319.8096 246.7776,319.8096 C248.245341,319.8096 248.9792,320.679991 248.9792,322.4208 C248.9792,323.478939 248.723203,324.340797 248.2112,325.0064 C247.699197,325.672003 247.016538,326.0048 246.1632,326.0048 L245.856,326.0048 L244.064,325.6976 C243.654398,325.629333 243.074137,325.5952 242.3232,325.5952 C241.435729,325.5952 240.70187,325.629333 240.1216,325.6976 C239.268262,325.800001 238.807467,325.8512 238.7392,325.8512 C237.681061,325.8512 237.152,325.236806 237.152,324.008 L237.152,322.1136 C235.377058,325.151482 232.714684,326.6704 229.1648,326.6704 C226.024518,326.6704 223.438943,325.38188 221.408,322.8048 C219.377057,320.22772 218.3616,316.976553 218.3616,313.0512 C218.3616,309.05758 219.35999,305.832012 221.3568,303.3744 C223.35361,300.916788 225.973317,299.688 229.216,299.688 Z M231.008,306.1392 C229.74506,306.1392 228.712537,306.736527 227.9104,307.9312 C227.108263,309.125873 226.656001,310.74719 226.5536,312.7952 C226.5536,312.7952 226.5536,313.017064 226.5536,313.4608 C226.5536,315.542944 226.954663,317.181327 227.7568,318.376 C228.558937,319.570673 229.64266,320.168 231.008,320.168 C232.509874,320.168 233.730129,319.519473 234.6688,318.2224 C235.607471,316.925327 236.0768,315.201611 236.0768,313.0512 C236.0768,310.969056 235.616005,309.29654 234.6944,308.0336 C233.772795,306.77066 232.544008,306.1392 231.008,306.1392 Z" id="MojGrad" fill="#0F63C0"></path>
                <g id="enterprise" transform="translate(0.000000, 0.000000)">
                    <rect id="Rectangle" fill="url(#linearGradient-1)" x="92.16" y="89.6" width="7.68" height="7.68"></rect>
                    <rect id="Rectangle" fill="url(#linearGradient-1)" x="92.16" y="104.96" width="7.68" height="7.68"></rect>
                    <rect id="Rectangle" fill="url(#linearGradient-1)" x="92.16" y="122.88" width="7.68" height="7.68"></rect>
                    <rect id="Rectangle" fill="url(#linearGradient-1)" x="92.16" y="140.8" width="7.68" height="7.68"></rect>
                    <rect id="Rectangle" fill="url(#linearGradient-1)" x="110.08" y="89.6" width="7.68" height="7.68"></rect>
                    <rect id="Rectangle" fill="url(#linearGradient-1)" x="110.08" y="104.96" width="7.68" height="7.68"></rect>
                    <rect id="Rectangle" fill="url(#linearGradient-1)" x="110.08" y="122.88" width="7.68" height="7.68"></rect>
                    <rect id="Rectangle" fill="url(#linearGradient-1)" x="110.08" y="140.8" width="7.68" height="7.68"></rect>
                    <rect id="Rectangle" fill="url(#linearGradient-1)" x="128" y="89.6" width="7.68" height="7.68"></rect>
                    <rect id="Rectangle" fill="url(#linearGradient-1)" x="128" y="104.96" width="7.68" height="7.68"></rect>
                    <rect id="Rectangle" fill="url(#linearGradient-1)" x="128" y="122.88" width="7.68" height="7.68"></rect>
                    <rect id="Rectangle" fill="url(#linearGradient-1)" x="128" y="140.8" width="7.68" height="7.68"></rect>
                    <rect id="Rectangle" fill="url(#linearGradient-1)" x="143.36" y="89.6" width="7.68" height="7.68"></rect>
                    <rect id="Rectangle" fill="url(#linearGradient-1)" x="110.08" y="71.68" width="7.68" height="7.68"></rect>
                    <rect id="Rectangle" fill="url(#linearGradient-1)" x="128" y="71.68" width="7.68" height="7.68"></rect>
                    <rect id="Rectangle" fill="url(#linearGradient-1)" x="143.36" y="71.68" width="7.68" height="7.68"></rect>
                    <rect id="Rectangle" fill="url(#linearGradient-1)" x="143.36" y="104.96" width="7.68" height="7.68"></rect>
                    <rect id="Rectangle" fill="url(#linearGradient-1)" x="143.36" y="122.88" width="7.68" height="7.68"></rect>
                    <rect id="Rectangle" fill="url(#linearGradient-1)" x="143.36" y="140.8" width="7.68" height="7.68"></rect>
                    <rect id="Rectangle" fill="url(#linearGradient-1)" x="161.28" y="89.6" width="7.68" height="7.68"></rect>
                    <rect id="Rectangle" fill="url(#linearGradient-1)" x="161.28" y="104.96" width="7.68" height="7.68"></rect>
                    <rect id="Rectangle" fill="url(#linearGradient-1)" x="161.28" y="122.88" width="7.68" height="7.68"></rect>
                    <rect id="Rectangle" fill="url(#linearGradient-1)" x="161.28" y="140.8" width="7.68" height="7.68"></rect>
                    <path d="M256.772895,65.2800005 C256.771263,65.2800005 256.769631,65.2800005 256.767999,65.2800005 L191.488,65.2800005 L191.488,4.35200099 C191.489632,1.94969701 189.5432,0.00163302551 187.140896,1.02552158e-06 C187.139264,1.02552158e-06 187.137632,1.02552158e-06 187.136,1.02552158e-06 L73.9840004,1.02552158e-06 C71.5816965,-0.00163097447 69.6336325,1.94480101 69.6320005,4.34710499 C69.6320005,4.34873699 69.6320005,4.35036899 69.6320005,4.35200099 L69.6320005,65.2800005 L4.35200099,65.2800005 C1.94969701,65.2783685 0.00163302551,67.2248005 1.02552158e-06,69.6271045 C1.02552158e-06,69.6287365 1.02552158e-06,69.6303685 1.02552158e-06,69.6320005 L1.02552158e-06,226.303999 C-0.00163097447,228.706303 1.94480101,230.654367 4.34710499,230.655999 C4.34873699,230.655999 4.35036899,230.655999 4.35200099,230.655999 L13.4493129,230.655999 C13.1968969,232.093247 13.0652489,233.548991 13.0560009,235.007999 L13.0560009,256.767999 C13.0543689,259.170303 15.0008009,261.118367 17.4031049,261.119999 C17.4047369,261.119999 17.4063689,261.119999 17.4080009,261.119999 L243.711999,261.119999 C246.114303,261.121631 248.062367,259.175199 248.063999,256.772895 C248.063999,256.771263 248.063999,256.769631 248.063999,256.767999 L248.063999,235.007999 C248.055295,233.548991 247.923647,232.093247 247.670687,230.655999 L256.767999,230.655999 C259.170303,230.657631 261.118367,228.711199 261.119999,226.308895 C261.119999,226.307263 261.119999,226.305631 261.119999,226.303999 L261.119999,69.6320005 C261.121631,67.2296965 259.175199,65.2816325 256.772895,65.2800005 Z M187.136,187.136 C187.136,191.943328 183.239328,195.839999 178.432,195.839999 C173.624672,195.839999 169.728,191.943328 169.728,187.136 C169.728,182.328672 173.624672,178.432 178.432,178.432 C183.236608,178.437984 187.130016,182.331392 187.136,187.136 Z M82.6880004,178.432 C87.4953283,178.432 91.3920003,182.328672 91.3920003,187.136 C91.3920003,191.943328 87.4953283,195.839999 82.6880004,195.839999 C77.8806724,195.839999 73.9840004,191.943328 73.9840004,187.136 C73.9899844,182.331392 77.8833924,178.437984 82.6880004,178.432 Z M56.5760006,252.415999 L21.7600009,252.415999 L21.7600009,235.007999 C21.7600009,225.393887 29.5538888,217.599999 39.1680007,217.599999 C48.7821126,217.599999 56.5760006,225.393887 56.5760006,235.007999 L56.5760006,252.415999 Z M30.4640008,200.191999 C30.4640008,195.384671 34.3606728,191.488 39.1680007,191.488 C43.9753287,191.488 47.8720006,195.384671 47.8720006,200.191999 C47.8720006,204.999327 43.9753287,208.895999 39.1680007,208.895999 C34.3633928,208.890015 30.4699848,204.996607 30.4640008,200.191999 Z M57.2353286,216.199199 C55.5940806,214.616159 53.7537286,213.253983 51.7605126,212.146943 C58.3984006,205.192447 58.1421766,194.173184 51.1876806,187.534752 C44.2331847,180.89632 33.2139208,181.153088 26.5754888,188.107584 C20.1546569,194.834143 20.1546569,205.419839 26.5754888,212.146399 C22.4215048,214.451871 18.9703689,217.840447 16.5887369,221.951455 L8.70400096,221.951455 L8.70400096,73.9840004 L69.6320005,73.9840004 L69.6320005,175.742464 C63.6556165,182.448352 63.8574405,192.62768 70.0954885,199.090943 C63.5674885,202.701471 58.8896326,208.924831 57.2353286,216.199199 Z M100.096,252.415999 L65.2800005,252.415999 L65.2800005,221.951999 C65.2800005,212.337887 73.0738885,204.543999 82.6880004,204.543999 C92.3021123,204.543999 100.096,212.337887 100.096,221.951999 L100.096,252.415999 Z M152.32,252.415999 L108.8,252.415999 L108.8,221.951999 C108.8,209.934495 118.542496,200.191999 130.56,200.191999 C142.577504,200.191999 152.32,209.934495 152.32,221.951999 L152.32,252.415999 Z M117.504,178.432 C117.504,171.22128 123.34928,165.376 130.56,165.376 C137.77072,165.376 143.616,171.22128 143.616,178.432 C143.616,185.64272 137.77072,191.488 130.56,191.488 C123.352544,191.480384 117.511616,185.639456 117.504,178.432 Z M157.064768,206.989279 C154.15056,201.851743 149.81488,197.665663 144.578336,194.934239 C153.770304,187.192032 154.945344,173.464192 147.20368,164.272224 C139.461472,155.080256 125.733632,153.905216 116.541664,161.64688 C107.349696,169.389088 106.174656,183.116928 113.91632,192.308896 C114.714912,193.257088 115.592928,194.135104 116.541664,194.934239 C111.30512,197.665663 106.96944,201.851743 104.055232,206.989279 C101.767168,203.725279 98.7664642,201.024319 95.2805123,199.090943 C101.952672,192.265376 101.82864,181.322816 95.0025283,174.650656 C90.6075523,170.354144 84.2617924,168.715616 78.3360004,170.345984 L78.3360004,8.70400096 L182.784,8.70400096 L182.784,170.345984 C181.365792,169.954848 179.902976,169.74704 178.432,169.728 C168.843456,169.702432 161.049568,177.454976 161.024,187.044064 C161.012032,191.530976 162.738144,195.848703 165.839488,199.090943 C162.353536,201.024319 159.352832,203.725279 157.064768,206.989279 Z M195.839999,235.007999 L195.839999,252.415999 L161.024,252.415999 L161.024,221.951999 C161.024,212.337887 168.817888,204.543999 178.432,204.543999 C188.046112,204.543999 195.839999,212.337887 195.839999,221.951999 L195.839999,235.007999 Z M239.359999,252.415999 L204.543999,252.415999 L204.543999,235.007999 C204.543999,225.393887 212.337887,217.599999 221.951999,217.599999 C231.566111,217.599999 239.359999,225.393887 239.359999,235.007999 L239.359999,252.415999 Z M213.247999,200.191999 C213.247999,195.384671 217.144671,191.488 221.951999,191.488 C226.759327,191.488 230.655999,195.384671 230.655999,200.191999 C230.655999,204.999327 226.759327,208.895999 221.951999,208.895999 C217.147391,208.890015 213.253983,204.996607 213.247999,200.191999 Z M252.416543,221.951999 L244.531263,221.951999 C242.149631,217.840991 238.698495,214.452415 234.544511,212.146943 C241.182399,205.192447 240.926175,194.173184 233.971679,187.534752 C227.017183,180.896864 215.997919,181.153088 209.359487,188.107584 C202.938655,194.834143 202.938655,205.419839 209.359487,212.146399 C207.366271,213.253439 205.525375,214.615615 203.884671,216.198655 C202.230911,208.924287 197.552511,202.700927 191.024512,199.090399 C197.262559,192.627136 197.464927,182.447808 191.488544,175.74192 L191.488544,73.9840004 L252.416543,73.9840004 L252.416543,221.951999 L252.416543,221.951999 Z" id="Shape" fill="url(#linearGradient-1)"></path>
                    <rect id="Rectangle" fill="url(#linearGradient-2)" x="207.36" y="99.84" width="7.68" height="71.68"></rect>
                    <rect id="Rectangle" fill="url(#linearGradient-2)" x="232.96" y="99.84" width="7.68" height="71.68"></rect>
                    <rect id="Rectangle" fill="url(#linearGradient-2)" x="23.04" y="99.84" width="7.68" height="71.68"></rect>
                    <rect id="Rectangle" fill="url(#linearGradient-2)" x="48.64" y="99.84" width="7.68" height="71.68"></rect>
                    <path d="M154.519016,15.360001 C154.517439,15.360001 154.515862,15.360001 154.514285,15.360001 L104.045715,15.360001 C101.724161,15.358369 99.8415781,17.3048009 99.840001,19.7071048 C99.840001,19.7087368 99.840001,19.7103688 99.840001,19.7120008 L99.840001,54.5279992 C99.8384238,56.9303031 101.719429,58.878367 104.040984,58.879999 C104.042561,58.879999 104.044138,58.879999 104.045715,58.879999 L154.514285,58.879999 C156.835839,58.881631 158.718422,56.9351991 158.719999,54.5328952 C158.719999,54.5312632 158.719999,54.5296312 158.719999,54.5279992 L158.719999,19.7120008 C158.721576,17.3096969 156.840571,15.361633 154.519016,15.360001 Z M150.308571,50.1759994 L108.251429,50.1759994 L108.251429,24.0640006 L150.308571,24.0640006 L150.308571,50.1759994 Z" id="Shape" fill="url(#linearGradient-3)"></path>
                </g>
            </g>
        </g>
    </g>
</svg>