<?xml version="1.0" encoding="UTF-8"?>
<svg width="31px" height="28px" viewBox="0 0 31 28" version="1.1" xmlns="http://www.w3.org/2000/svg" xmlns:xlink="http://www.w3.org/1999/xlink">
    <!-- Generator: Sketch 54.1 (76490) - https://sketchapp.com -->
    <title>nav_users_selected_icon</title>
    <desc>Created with Sketch.</desc>
    <g id="Web" stroke="none" stroke-width="1" fill="none" fill-rule="evenodd">
        <g id="Desktop-Copy-29" transform="translate(-30.000000, -467.000000)" fill="#0076FF" fill-rule="nonzero">
            <g id="nav_users_selected_icon" transform="translate(30.000000, 467.000000)">
                <path d="M25.0096436,12.3579606 C26.8575058,11.1574286 28.0816879,9.08001078 28.0816879,6.72231953 C28.0816879,3.01559131 25.0559998,0 21.3368607,0 C18.8473434,0 16.668602,1.35139411 15.5,3.35668103 C14.331398,1.35139411 12.1528931,0 9.66337582,0 C5.94423674,0 2.91831209,3.01559131 2.91831209,6.72231953 C2.91831209,9.08001078 4.14249422,11.1574286 5.99035645,12.3579606 C2.4784012,13.8017578 0,17.2503704 0,21.2656587 L0,24.6588766 C0,26.4946794 1.49853516,27.9879782 3.34024812,27.9879782 L27.6597519,27.9879782 C29.5017013,27.9879782 31,26.4946794 31,24.6591124 L31,21.2656587 C31,17.2503704 28.5215988,13.8017578 25.0096436,12.3579606 Z M21.3368607,1.81034483 C24.0543747,1.81034483 26.2652817,4.01387392 26.2652817,6.72231953 C26.2652817,9.43100079 24.0543747,11.6345299 21.3368607,11.6345299 C18.6191101,11.6345299 16.4082031,9.43100079 16.4082031,6.72231953 C16.4082031,4.01387392 18.6191101,1.81034483 21.3368607,1.81034483 Z M15.4966888,13.5926724 C14.8372956,13.0934132 14.1121521,12.6768925 13.3363953,12.3579606 C14.2235489,11.7816204 14.9669037,11.0030307 15.5,10.0884294 C16.0328598,11.0025593 16.7757415,11.7806775 17.6621857,12.3570178 C16.8937607,12.6719424 16.1657791,13.0863416 15.4966888,13.5926724 L15.4966888,13.5926724 Z M4.73471834,6.72231953 C4.73471834,4.01387392 6.94562532,1.81034483 9.66337582,1.81034483 C12.3808899,1.81034483 14.5917969,4.01387392 14.5917969,6.72231953 C14.5917969,9.43100079 12.3808899,11.6345299 9.66337582,11.6345299 C6.94562532,11.6345299 4.73471834,9.43100079 4.73471834,6.72231953 Z M15.0134964,26.1776333 L3.34024812,26.1776333 C2.49992368,26.1776333 1.81640625,25.4963968 1.81640625,24.6591124 L1.81640625,21.2656587 C1.81640625,16.953125 5.3366394,13.4448747 9.66337582,13.4448747 C13.9901123,13.4448747 17.5103455,16.9533607 17.5103455,21.2656587 L17.5103455,24.6591124 C17.5103455,25.4963968 16.8265915,26.1776333 15.9865036,26.1776333 L15.0134964,26.1776333 Z M29.1835938,24.6591124 C29.1835938,25.4963968 28.5000763,26.1776333 27.6597519,26.1776333 L18.9573211,26.1776333 C19.1928864,25.7219828 19.3267517,25.2059874 19.3267517,24.6591124 L19.3267517,21.2656587 C19.3267517,18.8004782 18.3920593,16.5488618 16.858284,14.843649 C18.1661911,13.9365908 19.7250366,13.4448747 21.3368607,13.4448747 C25.6635971,13.4448747 29.1835938,16.953125 29.1835938,21.2656587 L29.1835938,24.6591124 Z" id="Shape"></path>
            </g>
        </g>
    </g>
</svg>