<?xml version="1.0" encoding="UTF-8"?>
<svg width="353px" height="353px" viewBox="0 0 353 353" version="1.1" xmlns="http://www.w3.org/2000/svg" xmlns:xlink="http://www.w3.org/1999/xlink">
    <!-- Generator: Sketch 54.1 (76490) - https://sketchapp.com -->
    <title>no_content_icon</title>
    <desc>Created with Sketch.</desc>
    <g id="Web" stroke="none" stroke-width="1" fill="none" fill-rule="evenodd">
        <g id="Desktop-Copy-10" transform="translate(-919.000000, -258.000000)" fill="#000000" fill-rule="nonzero">
            <g id="no_content_icon" transform="translate(919.000000, 258.000000)">
                <g id="enterprise" transform="translate(-0.000000, 0.000000)">
                    <rect id="Rectangle" x="124.416" y="120.96" width="10.368" height="10.368"></rect>
                    <rect id="Rectangle" x="124.416" y="141.696" width="10.368" height="10.368"></rect>
                    <rect id="Rectangle" x="124.416" y="165.888" width="10.368" height="10.368"></rect>
                    <rect id="Rectangle" x="124.416" y="190.08" width="10.368" height="10.368"></rect>
                    <rect id="Rectangle" x="148.608" y="120.96" width="10.368" height="10.368"></rect>
                    <rect id="Rectangle" x="148.608" y="141.696" width="10.368" height="10.368"></rect>
                    <rect id="Rectangle" x="148.608" y="165.888" width="10.368" height="10.368"></rect>
                    <rect id="Rectangle" x="148.608" y="190.08" width="10.368" height="10.368"></rect>
                    <rect id="Rectangle" x="172.8" y="120.96" width="10.368" height="10.368"></rect>
                    <rect id="Rectangle" x="172.8" y="141.696" width="10.368" height="10.368"></rect>
                    <rect id="Rectangle" x="172.8" y="165.888" width="10.368" height="10.368"></rect>
                    <rect id="Rectangle" x="172.8" y="190.08" width="10.368" height="10.368"></rect>
                    <rect id="Rectangle" x="193.536" y="120.96" width="10.368" height="10.368"></rect>
                    <rect id="Rectangle" x="148.608" y="96.768" width="10.368" height="10.368"></rect>
                    <rect id="Rectangle" x="172.8" y="96.768" width="10.368" height="10.368"></rect>
                    <rect id="Rectangle" x="193.536" y="96.768" width="10.368" height="10.368"></rect>
                    <rect id="Rectangle" x="193.536" y="141.696" width="10.368" height="10.368"></rect>
                    <rect id="Rectangle" x="193.536" y="165.888" width="10.368" height="10.368"></rect>
                    <rect id="Rectangle" x="193.536" y="190.08" width="10.368" height="10.368"></rect>
                    <rect id="Rectangle" x="217.728" y="120.96" width="10.368" height="10.368"></rect>
                    <rect id="Rectangle" x="217.728" y="141.696" width="10.368" height="10.368"></rect>
                    <rect id="Rectangle" x="217.728" y="165.888" width="10.368" height="10.368"></rect>
                    <rect id="Rectangle" x="217.728" y="190.08" width="10.368" height="10.368"></rect>
                    <path d="M346.643408,88.1280007 C346.641205,88.1280007 346.639002,88.1280007 346.636799,88.1280007 L258.508799,88.1280007 L258.508799,5.87520134 C258.511003,2.63209096 255.883319,0.00220458444 252.640209,1.38445414e-06 C252.638006,1.38445414e-06 252.635803,1.38445414e-06 252.633599,1.38445414e-06 L99.8784006,1.38445414e-06 C96.6352902,-0.00220181553 94.0054038,2.62548136 94.0032006,5.86859174 C94.0032006,5.87079494 94.0032006,5.87299814 94.0032006,5.87520134 L94.0032006,88.1280007 L5.87520134,88.1280007 C2.63209096,88.1257975 0.00220458444,90.7534807 1.38445414e-06,93.996591 C1.38445414e-06,93.9987942 1.38445414e-06,94.0009974 1.38445414e-06,94.0032006 L1.38445414e-06,305.510399 C-0.00220181553,308.753509 2.62548136,311.383396 5.86859174,311.385599 C5.87079494,311.385599 5.87299814,311.385599 5.87520134,311.385599 L18.1565724,311.385599 C17.8158108,313.325884 17.638086,315.291138 17.6256012,317.260799 L17.6256012,346.636799 C17.623398,349.879909 20.2510812,352.509795 23.4941916,352.511999 C23.4963948,352.511999 23.498598,352.511999 23.5008012,352.511999 L329.011199,352.511999 C332.254309,352.514202 334.884196,349.886519 334.886399,346.643408 C334.886399,346.641205 334.886399,346.639002 334.886399,346.636799 L334.886399,317.260799 C334.874648,315.291138 334.696924,313.325884 334.355428,311.385599 L346.636799,311.385599 C349.879909,311.387802 352.509795,308.760119 352.511999,305.517009 C352.511999,305.514805 352.511999,305.512602 352.511999,305.510399 L352.511999,94.0032006 C352.514202,90.7600903 349.886519,88.1302039 346.643408,88.1280007 Z M252.633599,252.633599 C252.633599,259.123492 247.373092,264.383999 240.883199,264.383999 C234.393307,264.383999 229.1328,259.123492 229.1328,252.633599 C229.1328,246.143707 234.393307,240.883199 240.883199,240.883199 C247.36942,240.891278 252.625521,246.147379 252.633599,252.633599 Z M111.628801,240.883199 C118.118693,240.883199 123.3792,246.143707 123.3792,252.633599 C123.3792,259.123492 118.118693,264.383999 111.628801,264.383999 C105.138908,264.383999 99.8784006,259.123492 99.8784006,252.633599 C99.886479,246.147379 105.14258,240.891278 111.628801,240.883199 Z M76.3776008,340.761599 L29.3760012,340.761599 L29.3760012,317.260799 C29.3760012,304.281748 39.8977499,293.759999 52.876801,293.759999 C65.8558521,293.759999 76.3776008,304.281748 76.3776008,317.260799 L76.3776008,340.761599 Z M41.1264011,270.259199 C41.1264011,263.769307 46.3869082,258.508799 52.876801,258.508799 C59.3666937,258.508799 64.6272009,263.769307 64.6272009,270.259199 C64.6272009,276.749092 59.3666937,282.009599 52.876801,282.009599 C46.3905802,282.001521 41.1344795,276.74542 41.1264011,270.259199 Z M77.2676936,291.868919 C75.0520088,289.731815 72.5675336,287.892878 69.876692,286.398374 C78.8378408,277.009804 78.4919384,262.133798 69.1033688,253.171915 C59.7147993,244.210031 44.838793,244.556668 35.8769099,253.945238 C27.2087868,263.026094 27.2087868,277.316783 35.8769099,286.397639 C30.2690315,289.510026 25.609998,294.084604 22.3947948,299.634465 L11.7504013,299.634465 L11.7504013,99.8784006 L94.0032006,99.8784006 L94.0032006,237.252326 C85.9350823,246.305275 86.2075447,260.047367 94.6289094,268.772774 C85.8161095,273.646986 79.501004,282.048522 77.2676936,291.868919 Z M135.1296,340.761599 L88.1280007,340.761599 L88.1280007,299.635199 C88.1280007,286.656148 98.6497494,276.134399 111.628801,276.134399 C124.607852,276.134399 135.1296,286.656148 135.1296,299.635199 L135.1296,340.761599 Z M205.632,340.761599 L146.88,340.761599 L146.88,299.635199 C146.88,283.411569 160.03237,270.259199 176.256,270.259199 C192.47963,270.259199 205.632,283.411569 205.632,299.635199 L205.632,340.761599 Z M158.6304,240.883199 C158.6304,231.148728 166.521528,223.2576 176.256,223.2576 C185.990472,223.2576 193.8816,231.148728 193.8816,240.883199 C193.8816,250.617671 185.990472,258.508799 176.256,258.508799 C166.525934,258.498518 158.640682,250.613265 158.6304,240.883199 Z M212.037437,279.435527 C208.103256,272.499854 202.250088,266.848646 195.180753,263.161223 C207.58991,252.709243 209.176214,234.176659 198.724968,221.767502 C188.272987,209.358345 169.740403,207.772041 157.331247,218.223288 C144.92209,228.675268 143.335786,247.207852 153.787032,259.617009 C154.865131,260.897068 156.050453,262.08239 157.331247,263.161223 C150.261912,266.848646 144.408744,272.499854 140.474563,279.435527 C137.385677,275.029127 133.334727,271.382831 128.628692,268.772774 C137.636108,259.558257 137.468664,244.785801 128.253413,235.778385 C122.320196,229.978094 113.75342,227.766081 105.753601,229.967078 L105.753601,11.7504013 L246.758399,11.7504013 L246.758399,229.967078 C244.843819,229.439044 242.869017,229.158504 240.883199,229.1328 C227.938665,229.098283 217.416916,239.564217 217.3824,252.509486 C217.366243,258.566817 219.696494,264.39575 223.883308,268.772774 C219.177273,271.382831 215.126323,275.029127 212.037437,279.435527 Z M264.383999,317.260799 L264.383999,340.761599 L217.3824,340.761599 L217.3824,299.635199 C217.3824,286.656148 227.904148,276.134399 240.883199,276.134399 C253.862251,276.134399 264.383999,286.656148 264.383999,299.635199 L264.383999,317.260799 Z M323.135999,340.761599 L276.134399,340.761599 L276.134399,317.260799 C276.134399,304.281748 286.656148,293.759999 299.635199,293.759999 C312.61425,293.759999 323.135999,304.281748 323.135999,317.260799 L323.135999,340.761599 Z M287.884799,270.259199 C287.884799,263.769307 293.145306,258.508799 299.635199,258.508799 C306.125092,258.508799 311.385599,263.769307 311.385599,270.259199 C311.385599,276.749092 306.125092,282.009599 299.635199,282.009599 C293.148978,282.001521 287.892878,276.74542 287.884799,270.259199 Z M340.762333,299.635199 L330.117205,299.635199 C326.902002,294.085338 322.242968,289.510761 316.63509,286.398374 C325.596239,277.009804 325.250336,262.133798 315.861767,253.171915 C306.473197,244.210766 291.597191,244.556668 282.635308,253.945238 C273.967185,263.026094 273.967185,277.316783 282.635308,286.397639 C279.944466,287.892143 277.459257,289.731081 275.244306,291.868185 C273.01173,282.047788 266.69589,273.646252 257.883091,268.772039 C266.304455,260.046633 266.577652,246.30454 258.509534,237.251592 L258.509534,99.8784006 L340.762333,99.8784006 L340.762333,299.635199 L340.762333,299.635199 Z" id="Shape"></path>
                    <rect id="Rectangle" x="279.936" y="134.784" width="10.368" height="96.768"></rect>
                    <rect id="Rectangle" x="314.496" y="134.784" width="10.368" height="96.768"></rect>
                    <rect id="Rectangle" x="31.104" y="134.784" width="10.368" height="96.768"></rect>
                    <rect id="Rectangle" x="65.664" y="134.784" width="10.368" height="96.768"></rect>
                    <path d="M208.600672,20.7360014 C208.598543,20.7360014 208.596414,20.7360014 208.594285,20.7360014 L140.461715,20.7360014 C137.327617,20.7337982 134.78613,23.3614813 134.784001,26.6045915 C134.784001,26.6067947 134.784001,26.6089979 134.784001,26.6112011 L134.784001,73.6127989 C134.781872,76.8559091 137.32123,79.4857954 140.455328,79.4879986 C140.457457,79.4879986 140.459586,79.4879986 140.461715,79.4879986 L208.594285,79.4879986 C211.728383,79.4902018 214.26987,76.8625187 214.271999,73.6194085 C214.271999,73.6172053 214.271999,73.6150021 214.271999,73.6127989 L214.271999,26.6112011 C214.274128,23.3680909 211.73477,20.7382046 208.600672,20.7360014 Z M202.91657,67.7375992 L146.13943,67.7375992 L146.13943,32.4864008 L202.91657,32.4864008 L202.91657,67.7375992 Z" id="Shape"></path>
                </g>
            </g>
        </g>
    </g>
</svg>