<?xml version="1.0" encoding="UTF-8"?>
<svg width="40px" height="40px" viewBox="0 0 40 40" version="1.1" xmlns="http://www.w3.org/2000/svg" xmlns:xlink="http://www.w3.org/1999/xlink">
    <!-- Generator: Sketch 54.1 (76490) - https://sketchapp.com -->
    <title>search_icon</title>
    <desc>Created with Sketch.</desc>
    <g id="Web" stroke="none" stroke-width="1" fill="none" fill-rule="evenodd">
        <g id="Desktop-Copy-29" transform="translate(-360.000000, -59.000000)" fill="#000000" fill-rule="nonzero">
            <g id="search_icon" transform="translate(360.000000, 59.000000)">
                <path d="M39.39,36.4119298 L29.7057143,26.5164912 C32.1957143,23.6084211 33.56,19.9494737 33.56,16.1403509 C33.56,7.24070175 26.19,0 17.1314286,0 C8.07285714,0 0.702857143,7.24070175 0.702857143,16.1403509 C0.702857143,25.04 8.07285714,32.2807018 17.1314286,32.2807018 C20.5321429,32.2807018 23.7728571,31.2729825 26.5435714,29.36 L36.3014286,39.3305263 C36.7092857,39.7466667 37.2578571,39.9761404 37.8457143,39.9761404 C38.4021429,39.9761404 38.93,39.7677193 39.3307143,39.3887719 C40.1821429,38.5838596 40.2092857,37.2491228 39.39,36.4119298 Z M17.1314286,4.21052632 C23.8271429,4.21052632 29.2742857,9.56210526 29.2742857,16.1403509 C29.2742857,22.7185965 23.8271429,28.0701754 17.1314286,28.0701754 C10.4357143,28.0701754 4.98857143,22.7185965 4.98857143,16.1403509 C4.98857143,9.56210526 10.4357143,4.21052632 17.1314286,4.21052632 Z" id="Shape"></path>
            </g>
        </g>
    </g>
</svg>