<?xml version="1.0" encoding="UTF-8"?>
<svg width="26px" height="32px" viewBox="0 0 26 32" version="1.1" xmlns="http://www.w3.org/2000/svg" xmlns:xlink="http://www.w3.org/1999/xlink">
    <!-- Generator: Sketch 54.1 (76490) - https://sketchapp.com -->
    <title>trash_can_small_icon</title>
    <desc>Created with Sketch.</desc>
    <g id="Web" stroke="none" stroke-width="1" fill="none" fill-rule="evenodd">
        <g id="Desktop-Copy-23" transform="translate(-1746.000000, -1181.000000)" fill="#FFFFFF" fill-rule="nonzero">
            <g id="trash_can_small_icon" transform="translate(1746.000000, 1181.000000)">
                <path d="M17.4378143,11.6142191 C17.0251437,11.6142191 16.6906879,11.9481352 16.6906879,12.3601399 L16.6906879,26.458042 C16.6906879,26.8697552 17.0251437,27.2039627 17.4378143,27.2039627 C17.8504849,27.2039627 18.1849408,26.8697552 18.1849408,26.458042 L18.1849408,12.3601399 C18.1849408,11.9481352 17.8504849,11.6142191 17.4378143,11.6142191 Z" id="Path"></path>
                <path d="M8.62172238,11.6142191 C8.20905172,11.6142191 7.87459594,11.9481352 7.87459594,12.3601399 L7.87459594,26.458042 C7.87459594,26.8697552 8.20905172,27.2039627 8.62172238,27.2039627 C9.03439296,27.2039627 9.36884882,26.8697552 9.36884882,26.458042 L9.36884882,12.3601399 C9.36884882,11.9481352 9.03439296,11.6142191 8.62172238,11.6142191 Z" id="Path"></path>
                <path d="M2.19643502,9.5568182 L2.19643502,27.9347319 C2.19643502,29.020979 2.59538881,30.0410839 3.29231769,30.7730186 C3.98603624,31.506993 4.95146376,31.9236596 5.96183549,31.9254079 L20.0977011,31.9254079 C21.1083648,31.9236596 22.0737922,31.506993 22.7672189,30.7730186 C23.4641478,30.0410839 23.8631017,29.020979 23.8631017,27.9347319 L23.8631017,9.5568182 C25.2484959,9.18968533 26.146215,7.85343821 25.9608926,6.43414915 C25.7752784,5.01515152 24.5644082,3.95367131 23.1308594,3.95337995 L19.3056304,3.95337995 L19.3056304,3.02097902 C19.3100081,2.23688809 18.9994836,1.48397434 18.4435165,0.93006993 C17.8875494,0.376456876 17.1322513,0.0681818182 16.346893,0.0745920746 L9.71264368,0.0745920746 C8.92728536,0.0681818182 8.17198723,0.376456876 7.61602011,0.93006993 C7.060053,1.48397434 6.74952857,2.23688809 6.75390629,3.02097902 L6.75390629,3.95337995 L2.92867728,3.95337995 C1.49512843,3.95367131 0.284258299,5.01515152 0.098644,6.43414915 C-0.0866783218,7.85343821 0.811040787,9.18968533 2.19643502,9.5568182 Z M20.0977011,30.4335664 L5.96183549,30.4335664 C4.68442441,30.4335664 3.6906879,29.3379953 3.6906879,27.9347319 L3.6906879,9.62237762 L22.3688488,9.62237762 L22.3688488,27.9347319 C22.3688488,29.3379953 21.3751122,30.4335664 20.0977011,30.4335664 Z M8.24815916,3.02097902 C8.24319772,2.63257578 8.39612516,2.25874126 8.67221176,1.98455713 C8.94800647,1.710373 9.32332072,1.55973192 9.71264368,1.56643357 L16.346893,1.56643357 C16.7362158,1.55973192 17.1115302,1.710373 17.3873249,1.98455713 C17.6634115,2.2584499 17.8163389,2.63257578 17.8113776,3.02097902 L17.8113776,3.95337995 L8.24815916,3.95337995 L8.24815916,3.02097902 Z M2.92867728,5.44522145 L23.1308594,5.44522145 C23.8736081,5.44522145 24.4756869,6.04632869 24.4756869,6.78787879 C24.4756869,7.52942889 23.8736081,8.13053613 23.1308594,8.13053613 L2.92867728,8.13053613 C2.18592848,8.13053613 1.5838497,7.52942889 1.5838497,6.78787879 C1.5838497,6.04632869 2.18592848,5.44522145 2.92867728,5.44522145 Z" id="Shape"></path>
                <path d="M13.0297684,11.6142191 C12.6170977,11.6142191 12.2826419,11.9481352 12.2826419,12.3601399 L12.2826419,26.458042 C12.2826419,26.8697552 12.6170977,27.2039627 13.0297684,27.2039627 C13.4424389,27.2039627 13.7768948,26.8697552 13.7768948,26.458042 L13.7768948,12.3601399 C13.7768948,11.9481352 13.4424389,11.6142191 13.0297684,11.6142191 Z" id="Path"></path>
            </g>
        </g>
    </g>
</svg>