<?xml version="1.0" encoding="UTF-8"?>
<svg width="70px" height="56px" viewBox="0 0 70 56" version="1.1" xmlns="http://www.w3.org/2000/svg" xmlns:xlink="http://www.w3.org/1999/xlink">
    <!-- Generator: Sketch 54.1 (76490) - https://sketchapp.com -->
    <title>upload_photo_icon</title>
    <desc>Created with Sketch.</desc>
    <g id="Web" stroke="none" stroke-width="1" fill="none" fill-rule="evenodd">
        <g id="Desktop-Copy-22" transform="translate(-453.000000, -285.000000)" fill="#0076FF" fill-rule="nonzero">
            <g id="upload_photo_icon" transform="translate(453.000000, 285.000000)">
                <path d="M35,21 C29.2005,21 24.5,25.7026 24.5,31.5 C24.5,37.2995 29.2005,42 35,42 C40.7981,42 45.5,37.2995 45.5,31.5 C45.5,25.7026 40.7981,21 35,21 Z M63,10.5 L54.6,10.5 C53.445,10.5 52.2004,9.604 51.8357,8.5078 L49.6643,1.9915 C49.2982,0.896 48.055,0 46.9,0 L23.1,0 C21.945,0 20.7004,0.896 20.3357,1.9922 L18.1643,8.5085 C17.7982,9.604 16.555,10.5 15.4,10.5 L7,10.5 C3.15,10.5 0,13.65 0,17.5 L0,49 C0,52.85 3.15,56 7,56 L63,56 C66.85,56 70,52.85 70,49 L70,17.5 C70,13.65 66.85,10.5 63,10.5 Z M35,49 C25.3351,49 17.5,41.1649 17.5,31.5 C17.5,21.8358 25.3351,14 35,14 C44.6635,14 52.5,21.8358 52.5,31.5 C52.5,41.1649 44.6635,49 35,49 Z M60.55,22.3951 C59.1976,22.3951 58.1,21.2989 58.1,19.9451 C58.1,18.5927 59.1976,17.4951 60.55,17.4951 C61.9038,17.4951 63,18.5927 63,19.9451 C63,21.2989 61.9031,22.3951 60.55,22.3951 Z" id="Shape"></path>
            </g>
        </g>
    </g>
</svg>