<?xml version="1.0" encoding="UTF-8"?>
<svg width="70px" height="58px" viewBox="0 0 70 58" version="1.1" xmlns="http://www.w3.org/2000/svg" xmlns:xlink="http://www.w3.org/1999/xlink">
    <!-- Generator: Sketch 54.1 (76490) - https://sketchapp.com -->
    <title>upload_document_icon</title>
    <desc>Created with Sketch.</desc>
    <g id="Web" stroke="none" stroke-width="1" fill="none" fill-rule="evenodd">
        <g id="Desktop-Copy-22" transform="translate(-1152.000000, -835.000000)" fill="#0076FF" fill-rule="nonzero">
            <g id="upload_document_icon" transform="translate(1152.000000, 835.000000)">
                <path d="M65.5630452,0.0944251208 L43.7087426,0.0944251208 C41.2960118,0.0944251208 39.3379371,2.08926087 39.3379371,4.54697585 C39.3379371,4.54697585 38.7696857,8.63009179 34.9671316,8.99952657 L4.3708055,8.99952657 C1.95821218,8.99966667 0,10.9231932 0,13.3810483 L0,53.5258744 C0,55.9837295 1.95821218,57.9785652 4.3708055,57.9785652 L30.6091159,57.9785652 L30.6091159,35.7153913 L21.3341847,35.7153913 L34.9800589,17.9049082 L48.6259332,35.7153913 L39.351002,35.7153913 L39.351002,57.9784251 L65.5631827,57.9784251 C67.9759136,57.9784251 69.9339882,55.9835894 69.9339882,53.5257343 L69.9339882,4.54697585 C69.9339882,2.08912077 67.975776,0.0944251208 65.5630452,0.0944251208 Z" id="Path"></path>
            </g>
        </g>
    </g>
</svg>